<?xml version="1.0" standalone="no"?>
<!DOCTYPE svg PUBLIC "-//W3C//DTD SVG 20010904//EN"
 "http://www.w3.org/TR/2001/REC-SVG-20010904/DTD/svg10.dtd">
<svg version="1.0" xmlns="http://www.w3.org/2000/svg"
 width="658.000000pt" height="658.000000pt" viewBox="0 0 658.000000 658.000000"
 preserveAspectRatio="xMidYMid meet">

<g transform="translate(0.000000,658.000000) scale(0.100000,-0.100000)"
fill="#000000" stroke="none">
<path d="M3106 6563 c-4 -4 -22 -9 -39 -10 -180 -10 -443 -52 -558 -88 -26 -8
-57 -15 -70 -15 -13 0 -37 -7 -53 -15 -15 -8 -38 -17 -50 -19 -12 -2 -56 -16
-97 -31 -41 -14 -88 -31 -106 -36 -18 -5 -35 -14 -38 -19 -4 -6 -15 -10 -27
-10 -11 0 -32 -6 -46 -14 -15 -7 -92 -46 -172 -86 -80 -39 -158 -80 -175 -91
-16 -10 -39 -23 -50 -29 -24 -12 -37 -20 -140 -89 -44 -30 -81 -58 -83 -63 -2
-4 -8 -8 -14 -8 -6 0 -40 -24 -77 -52 -36 -29 -70 -56 -76 -60 -60 -44 -298
-275 -391 -378 -47 -53 -156 -190 -200 -252 -71 -100 -104 -148 -104 -152 0
-3 -12 -22 -26 -43 -14 -21 -30 -47 -35 -58 -5 -11 -19 -36 -30 -55 -26 -43
-110 -209 -136 -270 -11 -25 -26 -58 -33 -75 -22 -49 -41 -98 -50 -130 -5 -16
-19 -61 -33 -100 -21 -61 -43 -134 -78 -265 -6 -19 -14 -57 -19 -85 -4 -27
-13 -77 -19 -110 -33 -182 -41 -293 -41 -562 0 -153 5 -309 11 -348 5 -38 14
-104 19 -145 6 -41 14 -95 20 -120 5 -25 17 -81 26 -125 9 -44 22 -100 30
-125 7 -25 23 -76 35 -115 11 -38 27 -84 35 -102 8 -17 14 -36 14 -42 0 -6 6
-25 14 -43 8 -18 29 -69 46 -113 18 -44 36 -87 40 -95 5 -8 35 -67 67 -130 32
-63 65 -126 74 -140 107 -162 139 -212 139 -216 0 -14 185 -245 270 -336 37
-40 192 -195 217 -218 114 -103 268 -227 315 -255 9 -5 54 -35 100 -66 129
-87 424 -249 452 -249 3 0 29 -11 58 -24 172 -80 400 -151 623 -195 267 -53
391 -63 705 -58 302 4 375 11 605 58 55 12 111 23 125 26 96 20 353 103 455
148 17 7 53 22 82 34 117 47 356 178 493 269 197 132 441 339 581 493 108 121
229 265 229 274 0 4 15 26 33 49 33 41 157 224 157 231 0 3 19 37 42 78 156
268 286 615 348 930 11 56 25 125 30 152 12 62 33 278 31 323 0 17 4 32 9 32
11 0 8 287 -4 375 -3 22 -9 86 -15 141 -17 176 -60 399 -107 554 -74 242 -99
306 -213 540 -98 200 -130 254 -256 435 -202 290 -495 585 -770 775 -27 19
-52 38 -55 41 -35 39 -407 243 -575 315 -119 51 -335 124 -470 158 -166 41
-444 84 -582 90 -17 1 -35 5 -39 9 -4 4 -89 7 -189 7 -100 0 -185 -3 -189 -7z
m489 -468 c186 -19 293 -39 445 -84 30 -8 58 -15 63 -13 4 1 25 -7 47 -18 21
-11 50 -20 62 -20 13 0 32 -7 42 -15 11 -8 28 -15 39 -15 10 0 31 -6 45 -13
15 -8 43 -21 62 -29 66 -29 265 -129 295 -149 17 -10 37 -22 45 -26 8 -4 26
-14 40 -24 14 -9 52 -34 85 -55 33 -21 72 -47 86 -58 14 -12 38 -30 53 -41 67
-47 212 -172 291 -250 63 -63 216 -240 245 -285 8 -13 26 -37 40 -54 33 -40
129 -183 141 -210 5 -12 23 -43 39 -71 17 -27 50 -93 75 -145 25 -52 52 -107
60 -122 8 -14 15 -35 15 -46 0 -12 4 -23 10 -27 5 -3 14 -20 19 -38 5 -18 20
-63 34 -102 129 -376 173 -767 132 -1180 -22 -223 -51 -362 -121 -580 -57
-176 -187 -469 -221 -497 -7 -6 -13 -19 -13 -29 0 -10 -4 -20 -9 -23 -5 -3
-30 -41 -56 -84 -181 -303 -491 -621 -827 -850 -42 -29 -78 -52 -81 -52 -3 0
-35 -18 -72 -40 -36 -23 -76 -45 -88 -50 -12 -6 -29 -14 -37 -19 -8 -4 -51
-25 -95 -46 -44 -21 -88 -41 -97 -46 -63 -32 -302 -108 -448 -143 -245 -58
-362 -71 -645 -70 -277 0 -409 15 -645 73 -349 85 -711 248 -957 430 -34 25
-71 53 -84 61 -55 37 -222 182 -300 259 -77 78 -222 245 -259 300 -8 13 -36
50 -61 84 -90 121 -189 301 -289 522 -59 131 -126 350 -164 535 -43 208 -51
292 -50 550 0 266 14 392 63 610 42 181 101 373 122 395 5 5 9 18 9 28 0 10 6
31 13 45 8 15 21 43 30 62 59 131 140 285 163 311 8 8 14 18 14 22 0 10 123
188 196 282 128 166 399 423 574 544 71 49 175 118 190 124 8 4 29 16 45 27
17 11 37 22 45 26 8 3 22 9 30 14 23 13 92 48 120 59 14 6 32 15 40 20 8 5 33
17 55 26 22 10 53 24 68 31 16 8 39 14 51 14 12 0 26 4 32 9 24 24 310 105
427 121 38 5 73 12 79 16 21 13 268 31 433 32 94 1 233 -5 310 -13z"/>
<path d="M3629 5591 c-25 -5 -54 -14 -65 -19 -10 -6 -26 -13 -34 -16 -50 -19
-135 -90 -179 -150 -122 -165 -127 -399 -12 -566 45 -65 135 -143 201 -174 58
-27 77 -30 182 -34 120 -4 210 12 249 45 8 7 20 13 26 13 21 0 135 115 167
170 84 144 90 329 14 489 -24 49 -132 165 -169 181 -13 5 -31 14 -39 19 -68
42 -232 62 -341 42z"/>
<path d="M3685 4100 c-33 -4 -88 -15 -123 -24 -34 -9 -66 -14 -71 -12 -5 3
-39 -1 -77 -10 -71 -15 -213 -38 -340 -54 -40 -6 -84 -14 -99 -20 -14 -5 -45
-10 -69 -10 -23 0 -68 -7 -99 -15 -32 -8 -74 -15 -93 -15 -19 0 -44 -5 -55
-10 -22 -12 -46 -65 -51 -112 l-3 -33 108 -6 c79 -5 112 -11 125 -23 10 -9 23
-16 29 -16 18 0 51 -44 66 -88 13 -37 13 -55 1 -135 -7 -51 -18 -110 -24 -132
-32 -112 -71 -246 -96 -325 -8 -25 -14 -54 -14 -66 0 -11 -7 -29 -15 -40 -8
-10 -15 -31 -15 -46 0 -15 -6 -42 -14 -60 -20 -50 -37 -99 -48 -143 -5 -22
-13 -48 -18 -57 -6 -9 -13 -36 -16 -59 -4 -24 -13 -54 -21 -68 -7 -14 -13 -33
-13 -42 0 -9 -7 -33 -15 -52 -8 -20 -15 -48 -15 -63 0 -24 -12 -68 -42 -159
-5 -16 -14 -46 -18 -65 -4 -19 -13 -48 -18 -65 -6 -16 -20 -64 -32 -105 -12
-41 -28 -93 -36 -115 -8 -23 -14 -48 -14 -57 0 -9 -7 -29 -15 -44 -8 -16 -15
-42 -15 -57 0 -16 -5 -38 -11 -49 -7 -12 -17 -71 -24 -132 -14 -121 -4 -224
28 -297 40 -90 153 -179 279 -218 55 -18 241 -16 320 3 86 21 200 73 291 133
82 53 315 283 371 364 20 30 61 89 91 132 30 43 55 80 55 82 0 2 16 27 35 56
19 30 35 61 35 70 0 18 -61 62 -97 71 -19 5 -30 -4 -65 -53 -182 -254 -302
-385 -374 -408 -57 -18 -100 3 -110 54 -9 47 16 196 48 290 5 17 14 46 18 65
4 19 13 49 18 65 6 17 20 64 32 105 12 41 26 84 32 95 7 11 15 36 19 55 4 19
12 49 17 65 29 88 42 135 42 155 0 12 6 34 14 48 16 32 34 97 46 167 4 28 15
64 24 80 9 17 16 40 16 52 0 12 5 34 11 50 6 15 15 44 19 63 5 19 13 49 18 65
6 17 17 55 25 85 8 30 24 87 36 125 11 39 27 97 37 130 9 33 22 75 30 93 8 18
14 40 14 50 0 9 6 37 14 62 8 25 22 72 31 105 9 33 21 74 27 90 5 17 14 46 18
65 8 35 12 47 45 145 9 28 20 68 25 91 5 22 14 52 21 66 6 15 9 38 5 52 -6 26
-7 26 -104 25 -53 -1 -124 -5 -157 -9z"/>
</g>
</svg>
