<?xml version="1.0" standalone="no"?>
<!DOCTYPE svg PUBLIC "-//W3C//DTD SVG 20010904//EN"
 "http://www.w3.org/TR/2001/REC-SVG-20010904/DTD/svg10.dtd">
<svg version="1.0" xmlns="http://www.w3.org/2000/svg"
 width="1783.000000pt" height="818.000000pt" viewBox="0 0 1783.000000 818.000000"
 preserveAspectRatio="xMidYMid meet">

<g transform="translate(0.000000,818.000000) scale(0.100000,-0.100000)"
fill="#000000" stroke="none">
<path d="M3855 8170 c-22 -5 -94 -14 -160 -20 -174 -16 -413 -54 -566 -91
-137 -33 -508 -151 -544 -174 -11 -7 -36 -16 -55 -20 -38 -8 -337 -155 -485
-238 -96 -54 -245 -151 -310 -201 -21 -17 -50 -37 -63 -43 -66 -35 -258 -199
-445 -383 -342 -334 -571 -641 -772 -1032 -129 -252 -190 -394 -254 -591 -107
-331 -170 -632 -192 -923 -16 -203 -6 -752 15 -909 84 -603 287 -1167 594
-1645 209 -326 350 -494 692 -824 206 -198 451 -378 753 -552 443 -256 890
-409 1442 -494 177 -28 663 -39 930 -21 385 26 849 138 1235 301 570 239 1105
630 1514 1109 128 150 164 197 324 431 199 291 394 719 503 1104 145 514 192
1026 139 1518 -59 537 -165 916 -389 1381 -106 220 -159 315 -264 472 -282
421 -587 742 -992 1045 -288 214 -663 420 -980 535 -373 136 -605 190 -1065
247 -187 23 -534 33 -605 18z m485 -580 c215 -16 404 -46 605 -97 99 -25 189
-50 200 -56 10 -5 40 -16 65 -23 148 -42 350 -132 570 -254 502 -277 907 -650
1239 -1142 103 -153 321 -567 321 -612 0 -11 7 -30 16 -41 19 -25 105 -292
144 -444 68 -271 100 -533 100 -826 0 -504 -71 -880 -252 -1330 -64 -158 -158
-354 -189 -394 -11 -13 -19 -29 -19 -36 0 -17 -206 -326 -284 -425 -202 -258
-548 -580 -818 -761 -175 -118 -501 -290 -680 -359 -226 -87 -628 -188 -853
-215 -152 -18 -645 -21 -806 -5 -383 38 -908 200 -1269 393 -470 250 -882 610
-1204 1052 -125 170 -187 274 -296 490 -148 294 -223 503 -295 826 -67 297
-70 327 -70 729 0 246 4 394 13 455 35 245 128 619 191 770 16 39 32 83 36 99
9 41 185 397 242 489 65 106 242 356 311 441 121 148 364 385 557 543 62 50
273 194 380 259 116 70 473 241 537 258 31 8 69 21 84 29 85 44 442 132 683
168 165 26 518 34 741 19z"/>
<path d="M4460 6946 c-98 -27 -163 -67 -251 -155 -100 -100 -150 -191 -174
-316 -19 -98 -19 -147 1 -243 22 -112 75 -211 153 -291 128 -132 223 -177 388
-187 230 -13 342 25 480 164 128 129 183 260 183 438 0 106 -26 220 -67 297
-16 28 -61 86 -101 129 -85 90 -171 139 -287 163 -85 18 -263 18 -325 1z"/>
<path d="M4570 5090 c-36 -5 -105 -17 -155 -28 -49 -11 -97 -20 -105 -19 -17
0 -426 -65 -560 -89 -47 -9 -116 -20 -155 -25 -38 -4 -110 -15 -160 -24 -49
-9 -108 -20 -130 -23 -33 -6 -43 -14 -63 -49 -12 -23 -25 -65 -29 -92 l-6 -51
54 0 c227 0 325 -49 360 -181 19 -69 -11 -240 -83 -487 -33 -114 -69 -238 -79
-277 -10 -38 -25 -90 -33 -115 -50 -157 -88 -277 -111 -355 -24 -85 -45 -154
-80 -270 -8 -27 -19 -75 -25 -105 -10 -55 -18 -83 -130 -460 -33 -113 -69
-234 -79 -270 -84 -283 -98 -511 -41 -664 44 -116 186 -236 338 -287 58 -19
80 -21 235 -17 163 5 177 7 262 38 111 40 189 79 280 139 77 50 369 331 445
426 60 76 240 345 274 409 29 55 28 60 -38 108 -70 51 -84 44 -182 -89 -187
-253 -329 -409 -407 -446 -52 -25 -103 -22 -132 8 -47 46 -31 185 58 500 25
88 60 201 77 250 17 50 37 115 46 145 8 30 29 97 45 148 16 51 29 103 29 115
0 13 11 50 24 83 13 32 31 95 41 139 9 44 27 114 40 155 13 41 60 206 105 365
44 160 96 340 115 400 19 61 43 146 54 190 12 44 46 163 76 265 145 488 149
499 137 525 -11 25 -13 25 -129 24 -65 -1 -147 -5 -183 -9z"/>
<path d="M11850 6935 c-180 -36 -317 -127 -463 -308 -41 -51 -85 -102 -98
-114 -25 -23 -91 -42 -145 -43 -29 0 -33 -5 -53 -56 -11 -31 -21 -57 -21 -60
0 -2 40 -5 89 -6 l89 -3 -153 -445 c-171 -499 -192 -554 -231 -605 -44 -59
-140 -105 -158 -76 -3 4 3 16 14 26 52 47 5 115 -84 123 -68 5 -118 -11 -151
-49 -33 -40 -32 -64 8 -104 41 -41 90 -55 192 -55 206 1 390 86 511 238 99
125 153 245 295 662 l97 285 93 3 94 3 22 59 22 60 -95 0 -94 0 25 67 c74 196
203 340 322 359 55 8 65 -11 33 -67 -19 -35 -20 -44 -10 -69 24 -59 129 -79
191 -37 95 64 52 190 -73 216 -64 14 -187 12 -268 -4z"/>
<path d="M8747 6906 c-4 -11 9 -16 56 -21 125 -14 159 -46 138 -131 -15 -60
-344 -922 -378 -989 -46 -94 -101 -130 -212 -141 -42 -5 -61 -11 -61 -20 0
-21 865 -21 873 0 4 10 -11 15 -60 20 -135 14 -165 46 -134 143 45 143 366
973 393 1015 38 61 82 87 170 102 40 7 73 17 76 24 3 9 -97 12 -426 12 -361 0
-431 -2 -435 -14z"/>
<path d="M9806 6470 c-109 -16 -203 -33 -209 -39 -8 -8 -2 -11 21 -11 18 0 49
-7 69 -15 l36 -15 -6 -54 c-3 -35 -51 -173 -140 -400 l-134 -346 167 0 168 0
56 153 c61 163 101 228 235 378 76 84 209 186 256 195 44 8 69 -10 60 -43 -3
-13 -49 -135 -101 -270 -52 -135 -98 -267 -101 -294 -7 -62 12 -94 75 -121
109 -49 272 1 405 123 84 76 95 94 66 109 -18 10 -27 5 -77 -43 -31 -29 -67
-59 -79 -65 -27 -15 -53 -6 -53 20 0 10 48 142 107 291 116 296 128 351 89
409 -30 46 -97 71 -169 65 -142 -12 -274 -92 -455 -276 -71 -72 -119 -115
-114 -101 5 14 40 103 76 197 36 95 66 175 66 178 0 11 -126 1 -314 -25z"/>
<path d="M12545 6494 c-11 -2 -45 -9 -75 -15 -256 -52 -535 -278 -601 -488
-28 -88 -29 -193 -4 -246 61 -125 195 -183 400 -172 273 15 535 160 676 375
84 128 113 272 74 370 -24 59 -101 125 -178 152 -60 21 -239 36 -292 24z m137
-83 c23 -25 28 -41 28 -82 0 -185 -131 -487 -277 -637 -79 -82 -173 -94 -236
-31 -29 30 -30 32 -24 107 9 108 39 208 102 340 62 128 127 231 178 280 72 69
178 80 229 23z"/>
<path d="M9135 4264 c-11 -2 -45 -9 -75 -15 -256 -52 -535 -278 -601 -488 -28
-88 -29 -193 -4 -246 61 -125 195 -183 400 -172 273 15 535 160 676 375 84
128 113 272 74 370 -24 59 -101 125 -178 152 -60 21 -239 36 -292 24z m137
-83 c23 -25 28 -41 28 -82 0 -185 -131 -487 -277 -637 -79 -82 -173 -94 -236
-31 -29 30 -30 32 -24 107 9 108 39 208 102 340 62 128 127 231 178 280 72 69
178 80 229 23z"/>
<path d="M10096 4240 c-109 -16 -203 -33 -209 -39 -8 -8 -2 -11 21 -11 18 0
49 -7 69 -15 l36 -15 -6 -54 c-3 -35 -51 -173 -140 -400 l-134 -346 167 0 168
0 56 153 c61 163 101 228 235 378 76 84 209 186 256 195 44 8 69 -10 60 -43
-3 -13 -49 -135 -101 -270 -52 -135 -98 -267 -101 -294 -7 -62 12 -94 75 -121
109 -49 272 1 405 123 84 76 95 94 66 109 -18 10 -27 5 -77 -43 -31 -29 -67
-59 -79 -65 -27 -15 -53 -6 -53 20 0 10 48 142 107 291 116 296 128 351 89
409 -30 46 -97 71 -169 65 -142 -12 -274 -92 -455 -276 -71 -72 -119 -115
-114 -101 5 14 40 103 76 197 36 95 66 175 66 178 0 11 -126 1 -314 -25z"/>
<path d="M17518 2460 c-102 -15 -191 -31 -197 -34 -25 -16 -11 -36 25 -36 36
0 73 -15 86 -34 4 -6 5 -27 2 -46 -7 -38 -122 -340 -130 -340 -3 0 -20 11 -37
24 -142 105 -411 25 -618 -185 -244 -247 -301 -561 -121 -667 41 -23 58 -27
127 -27 70 0 89 4 150 33 58 27 90 53 184 150 63 64 111 108 107 97 -29 -70
-56 -154 -56 -177 0 -36 42 -84 87 -99 58 -19 173 -6 246 29 68 32 147 94 202
159 35 41 35 42 15 53 -19 10 -28 6 -70 -34 -62 -58 -115 -84 -138 -69 -9 6
-16 21 -14 33 1 12 105 287 231 611 l228 589 -61 -1 c-33 -1 -145 -14 -248
-29z m-319 -484 c74 -39 67 -156 -21 -330 -54 -109 -111 -191 -182 -261 -94
-94 -162 -117 -205 -71 -46 49 -21 196 61 361 122 243 247 352 347 301z"/>
<path d="M8727 2446 c-4 -10 15 -16 80 -25 66 -8 92 -16 111 -33 44 -42 31
-89 -158 -588 -95 -250 -183 -475 -195 -500 -44 -86 -103 -123 -213 -136 -44
-5 -62 -11 -62 -21 0 -23 955 -13 1090 11 294 52 488 149 670 335 150 153 190
241 190 416 0 153 -39 250 -139 350 -102 103 -282 171 -515 194 -60 6 -277 11
-482 11 -306 0 -373 -2 -377 -14z m768 -77 c126 -23 230 -102 282 -214 39 -84
45 -243 14 -366 -82 -326 -331 -552 -632 -575 -94 -7 -156 5 -184 36 -16 18
-17 25 -5 63 9 31 294 772 401 1045 10 26 34 28 124 11z"/>
<path d="M11073 2026 c-341 -65 -617 -272 -704 -528 -54 -161 4 -302 148 -359
52 -21 75 -23 213 -23 179 0 247 13 375 74 68 32 235 143 235 155 0 3 -9 9
-20 15 -17 9 -32 4 -83 -24 -109 -61 -209 -89 -317 -90 -78 -1 -102 3 -135 20
-60 31 -85 74 -85 148 0 34 4 66 8 72 4 6 58 17 120 24 359 39 632 206 635
387 0 53 -23 88 -79 117 -49 26 -205 32 -311 12z m78 -77 c42 -42 4 -150 -87
-248 -78 -84 -156 -122 -306 -146 -37 -6 -38 -5 -28 19 75 198 261 396 373
396 15 0 37 -10 48 -21z"/>
<path d="M11875 2010 c-110 -16 -203 -29 -207 -29 -5 -1 -8 -5 -8 -11 0 -5 13
-10 29 -10 41 0 89 -19 95 -38 9 -28 -15 -101 -148 -448 -69 -182 -126 -334
-126 -338 0 -4 75 -5 166 -4 l166 3 49 130 c57 154 62 163 151 283 77 102 201
232 264 275 49 33 97 40 102 15 2 -9 -54 -166 -124 -350 -70 -183 -129 -339
-132 -346 -3 -10 31 -12 162 -10 l167 3 62 155 c34 85 79 180 99 211 53 78
212 254 280 306 61 49 119 63 126 32 2 -9 -43 -135 -98 -280 -56 -145 -104
-285 -107 -310 -5 -41 -2 -49 26 -81 90 -103 304 -63 458 84 81 79 90 94 63
108 -19 10 -29 4 -87 -50 -51 -48 -71 -60 -91 -58 -22 2 -27 8 -24 28 1 14 43
131 94 260 131 340 140 382 91 441 -33 39 -79 59 -136 59 -123 0 -240 -73
-428 -268 -73 -75 -129 -128 -125 -117 53 137 76 213 76 251 0 115 -113 164
-268 116 -106 -34 -219 -122 -379 -300 -48 -53 -84 -90 -81 -82 10 23 139 352
149 378 8 21 7 22 -49 21 -31 -1 -147 -14 -257 -29z"/>
<path d="M14190 2026 c-154 -43 -313 -156 -420 -297 -95 -127 -160 -280 -160
-379 0 -103 66 -207 145 -229 148 -41 294 23 459 201 l77 83 -30 -83 c-17 -46
-31 -98 -31 -116 0 -111 202 -130 378 -36 57 30 192 155 192 178 0 5 -10 12
-22 15 -16 5 -35 -7 -79 -48 -59 -54 -112 -76 -132 -56 -17 17 0 68 142 435
l129 331 -67 3 c-36 1 -106 -1 -155 -5 l-89 -8 -22 -59 -22 -60 -12 36 c-13
40 -54 82 -94 97 -37 14 -130 12 -187 -3z m175 -56 c59 -22 71 -149 26 -275
-66 -187 -262 -405 -362 -405 -34 0 -67 32 -74 72 -27 145 171 530 307 597 48
24 65 25 103 11z"/>
<path d="M15286 2010 c-109 -16 -203 -33 -209 -39 -8 -8 -2 -11 21 -11 18 0
49 -7 69 -15 l36 -15 -6 -54 c-3 -35 -51 -173 -140 -400 l-134 -346 167 0 168
0 56 153 c61 163 101 228 235 378 76 84 209 186 256 195 44 8 69 -10 60 -43
-3 -13 -49 -135 -101 -270 -52 -135 -98 -267 -101 -294 -7 -62 12 -94 75 -121
109 -49 272 1 405 123 84 76 95 94 66 109 -18 10 -27 5 -77 -43 -31 -29 -67
-59 -79 -65 -27 -15 -53 -6 -53 20 0 10 48 142 107 291 116 296 128 351 89
409 -30 46 -97 71 -169 65 -142 -12 -274 -92 -455 -276 -71 -72 -119 -115
-114 -101 5 14 40 103 76 197 36 95 66 175 66 178 0 11 -126 1 -314 -25z"/>
</g>
</svg>
